<svg width="28" height="33" viewBox="0 0 28 33" fill="none" xmlns="http://www.w3.org/2000/svg">
<path d="M8.42857 18.2222H19.5714M14 13.0556V23.3889M23.2857 32H4.71429C3.7292 32 2.78445 31.6371 2.08789 30.9911C1.39133 30.3452 1 29.4691 1 28.5556V4.44444C1 3.53092 1.39133 2.65481 2.08789 2.00885C2.78445 1.3629 3.7292 1 4.71429 1H15.0883C15.5808 1.0001 16.0531 1.18161 16.4013 1.50461L26.4559 10.8287C26.8042 11.1516 26.9999 11.5896 27 12.0463V28.5556C27 29.4691 26.6087 30.3452 25.9121 30.9911C25.2155 31.6371 24.2708 32 23.2857 32Z" stroke="black" stroke-width="1.33333" stroke-linecap="round" stroke-linejoin="round"/>
</svg>
