<svg width="21" height="26" viewBox="0 0 21 26" fill="none" xmlns="http://www.w3.org/2000/svg">
<path d="M7.66667 25H17C17.7072 25 18.3855 24.719 18.8856 24.219C19.3857 23.7189 19.6667 23.0406 19.6667 22.3333V9.552C19.6666 9.19841 19.5261 8.85932 19.276 8.60933L12.0573 1.39067C11.8073 1.1406 11.4683 1.00008 11.1147 1H3.66667C2.95942 1 2.28115 1.28095 1.78105 1.78105C1.28095 2.28115 1 2.95942 1 3.66667V18.3333M1 25L7.50533 18.4947M7.50533 18.4947C7.87561 18.8711 8.31675 19.1705 8.80332 19.3756C9.28989 19.5807 9.81225 19.6875 10.3403 19.6897C10.8683 19.6919 11.3915 19.5895 11.8798 19.3885C12.3681 19.1875 12.8117 18.8918 13.1851 18.5185C13.5585 18.1451 13.8543 17.7016 14.0555 17.2133C14.2566 16.7251 14.3591 16.2019 14.357 15.6739C14.3549 15.1459 14.2483 14.6235 14.0433 14.1369C13.8383 13.6502 13.539 13.209 13.1627 12.8387C12.4105 12.0985 11.3964 11.6856 10.3412 11.6897C9.286 11.6939 8.27518 12.1149 7.52893 12.8609C6.78269 13.607 6.36148 14.6177 6.35706 15.6729C6.35264 16.7282 6.76537 17.7424 7.50533 18.4947Z" stroke="black" stroke-width="1.33333" stroke-linecap="round" stroke-linejoin="round"/>
</svg>
