<svg width="42" height="42" viewBox="0 0 42 42" fill="none" xmlns="http://www.w3.org/2000/svg">
<path d="M17.32 3.08889C17.52 1.88444 18.5644 1 19.7867 1H22.2156C23.4378 1 24.4822 1.88444 24.6822 3.08889L25.0133 5.07556C25.1689 6.01778 25.8667 6.77333 26.7467 7.14222C27.6311 7.50667 28.6467 7.45778 29.4244 6.90222L31.0622 5.73111C31.5439 5.38679 32.1322 5.2246 32.7222 5.27344C33.3123 5.32227 33.8659 5.57895 34.2844 5.99778L36.0022 7.71778C36.8689 8.58222 36.98 9.94444 36.2689 10.94L35.0978 12.5778C34.5422 13.3556 34.4933 14.3689 34.86 15.2533C35.2267 16.1356 35.9822 16.8311 36.9267 16.9867L38.9111 17.32C40.1178 17.52 41 18.5644 41 19.7844V22.2156C41 23.4378 40.1178 24.4822 38.9111 24.6822L36.9267 25.0133C35.9822 25.1689 35.2267 25.8644 34.86 26.7467C34.4933 27.6311 34.5422 28.6444 35.0978 29.4222L36.2689 31.0622C36.98 32.0556 36.8667 33.4178 36.0022 34.2844L34.2822 36.0022C33.8638 36.4205 33.3107 36.6768 32.7211 36.7256C32.1315 36.7745 31.5437 36.6126 31.0622 36.2689L29.4222 35.0978C28.6444 34.5422 27.6311 34.4933 26.7489 34.86C25.8667 35.2267 25.1711 35.9822 25.0133 36.9244L24.6822 38.9111C24.4822 40.1156 23.4378 41 22.2156 41H19.7844C18.5622 41 17.52 40.1156 17.3178 38.9111L16.9889 36.9244C16.8311 35.9822 16.1356 35.2267 15.2533 34.8578C14.3689 34.4933 13.3556 34.5422 12.5778 35.0978L10.9378 36.2689C9.94445 36.98 8.58222 36.8667 7.71556 36.0022L5.99778 34.2822C5.57895 33.8637 5.32227 33.3101 5.27344 32.72C5.2246 32.1299 5.38679 31.5417 5.73111 31.06L6.90222 29.4222C7.45778 28.6444 7.50889 27.6311 7.14222 26.7467C6.77556 25.8644 6.02 25.1689 5.07556 25.0133L3.08889 24.68C1.88444 24.48 1 23.4356 1 22.2156V19.7844C1 18.5622 1.88444 17.5178 3.08889 17.3178L5.07556 16.9867C6.01778 16.8311 6.77556 16.1356 7.14222 15.2533C7.50889 14.3689 7.46 13.3556 6.90444 12.5778L5.73333 10.9378C5.38901 10.4561 5.22682 9.86783 5.27566 9.27776C5.32449 8.68768 5.58118 8.13408 6 7.71556L7.71778 5.99778C8.1363 5.57895 8.6899 5.32227 9.27998 5.27344C9.87006 5.2246 10.4583 5.38679 10.94 5.73111L12.5778 6.90222C13.3556 7.45778 14.3711 7.50667 15.2533 7.14C16.1356 6.77333 16.8311 6.01778 16.9867 5.07556L17.32 3.08889Z" fill="white" stroke="black" stroke-width="1.33333" stroke-linecap="round" stroke-linejoin="round"/>
<path d="M27.669 21C27.669 22.7681 26.9666 24.4638 25.7164 25.714C24.4662 26.9643 22.7705 27.6667 21.0024 27.6667C19.2343 27.6667 17.5386 26.9643 16.2883 25.714C15.0381 24.4638 14.3357 22.7681 14.3357 21C14.3357 19.2319 15.0381 17.5362 16.2883 16.286C17.5386 15.0357 19.2343 14.3333 21.0024 14.3333C22.7705 14.3333 24.4662 15.0357 25.7164 16.286C26.9666 17.5362 27.669 19.2319 27.669 21Z" fill="white" stroke="black" stroke-width="1.33333" stroke-linecap="round" stroke-linejoin="round"/>
</svg>
